<?xml version="1.0" encoding="UTF-8" standalone="no"?>
<!-- Generator: Adobe Illustrator 16.0.0, SVG Export Plug-In . SVG Version: 6.00 Build 0)  -->

<svg
   xmlns:dc="http://purl.org/dc/elements/1.1/"
   xmlns:cc="http://creativecommons.org/ns#"
   xmlns:rdf="http://www.w3.org/1999/02/22-rdf-syntax-ns#"
   xmlns:svg="http://www.w3.org/2000/svg"
   xmlns="http://www.w3.org/2000/svg"
   xmlns:sodipodi="http://sodipodi.sourceforge.net/DTD/sodipodi-0.dtd"
   xmlns:inkscape="http://www.inkscape.org/namespaces/inkscape"
   version="1.1"
   id="Layer_1"
   x="0px"
   y="0px"
   width="1000px"
   height="1000px"
   viewBox="0 0 1000 1000"
   enable-background="new 0 0 1000 1000"
   xml:space="preserve"
   sodipodi:docname="funnel.svg"
   inkscape:version="0.92.3 (2405546, 2018-03-11)"><metadata
   id="metadata3834"><rdf:RDF><cc:Work
       rdf:about=""><dc:format>image/svg+xml</dc:format><dc:type
         rdf:resource="http://purl.org/dc/dcmitype/StillImage" /><dc:title></dc:title></cc:Work></rdf:RDF></metadata><defs
   id="defs3832" /><sodipodi:namedview
   pagecolor="#ffffff"
   bordercolor="#666666"
   borderopacity="1"
   objecttolerance="10"
   gridtolerance="10"
   guidetolerance="10"
   inkscape:pageopacity="0"
   inkscape:pageshadow="2"
   inkscape:window-width="2560"
   inkscape:window-height="1385"
   id="namedview3830"
   showgrid="false"
   inkscape:zoom="0.236"
   inkscape:cx="500"
   inkscape:cy="500"
   inkscape:window-x="1920"
   inkscape:window-y="27"
   inkscape:window-maximized="1"
   inkscape:current-layer="Layer_1" />
<path
   fill-rule="evenodd"
   clip-rule="evenodd"
   fill="#E35252"
   d="M282.048,738.545c0.029-1.181,0.083-2.361,0.083-3.541  c0.004-70.282,0.003-140.565,0.004-210.847c0-1.158,0-2.315,0-3.739c7.335,0,14.402-0.063,21.465,0.079  c0.893,0.019,1.917,0.973,2.623,1.733c8.255,8.889,17.685,16.369,27.846,22.906c3.707,2.385,7.825,4.14,11.784,6.123  c8.377,4.196,17.358,6.521,26.374,8.91c9.461,2.507,19.061,3.188,28.725,3.93c14.48,1.11,28.814-0.484,43.147-1.978  c5.289-0.551,10.491-1.927,16.01-2.979c-0.479,3.45-0.897,6.56-1.345,9.664c-0.931,6.459-2.272,12.888-2.725,19.379  c-0.654,9.38-0.924,18.805-0.894,28.209c0.041,12.662,2.344,25.138,5.529,37.278c2.311,8.81,5.127,17.709,10.22,25.551  c4.04,6.219,7.644,12.771,12.169,18.612c4.473,5.774,9.804,10.895,14.875,16.189c1.451,1.515,2.356,2.918,2.307,5.158  c-0.137,6.45,0,12.906,0.029,19.36C427.532,738.545,354.79,738.545,282.048,738.545z M342.332,632.528  c-4.859,6.133-9.595,11.875-14.06,17.82c-3.688,4.91-7.942,9.138-12.846,12.826c-5.94,4.469-11.683,9.199-17.69,13.957  c0.886,0.732,1.565,1.315,2.266,1.872c6.831,5.416,13.685,10.804,20.483,16.262c1.331,1.068,2.576,2.3,3.645,3.629  c5.575,6.937,11.078,13.931,16.615,20.898c0.483,0.607,1.028,1.164,1.684,1.902c4.767-6.018,9.504-11.76,13.967-17.706  c3.686-4.911,7.943-9.137,12.846-12.826c5.939-4.47,11.684-9.197,17.693-13.957c-0.89-0.734-1.57-1.315-2.271-1.871  c-6.76-5.358-13.551-10.681-20.267-16.096c-1.538-1.239-2.959-2.684-4.198-4.223C354.285,647.664,348.451,640.246,342.332,632.528z"
   id="path3823" />
<path
   fill-rule="evenodd"
   clip-rule="evenodd"
   fill="#1E1E1E"
   d="M718.502,520.317c-6.908-0.029-13.816-0.021-20.723-0.13  c-0.986-0.015-2.205-0.324-2.906-0.953c-5.123-4.6-10.145-9.312-15.186-14.001c-0.236-0.22-0.355-0.565-0.697-1.13  c7.785,0,15.285,0,23.008,0c0-61.949,0-123.695,0-185.588c-61.752,0-123.434,0-185.373,0c0,7.778,0,15.449,0,23.387  c-4.248-4.531-8.02-9.034-12.313-12.97c-3.172-2.909-4.324-5.991-4.037-10.215c0.361-5.337,0.086-10.718,0.086-16.54  c1.229,0,2.359,0,3.492,0c70.369,0,140.738,0,211.107-0.004c1.182,0,2.361-0.054,3.541-0.083  C718.502,374.833,718.502,447.575,718.502,520.317z"
   id="path3825" />
<path
   fill-rule="evenodd"
   clip-rule="evenodd"
   fill="#1E1E1E"
   d="M521.197,498.63c5.283-1.092,9.945-2.083,14.619-3.016  c22.709-4.534,45.557-7.437,68.775-5.375c29.801,2.647,55.479,14.143,76.707,35.473c13.453,13.52,23.369,29.169,29.318,47.239  c5.232,15.894,6.959,32.328,6.527,49.017c-0.521,20.108-3.916,39.821-8.148,59.42c-2.637,12.207-5.34,24.4-7.904,36.623  c-0.385,1.831-1.311,2.595-2.98,2.997c-10.318,2.484-20.541,5.46-30.955,7.431c-18.709,3.541-37.34,7.724-56.441,8.787  c-22.07,1.23-43.805-0.212-64.607-8.495c-15.037-5.986-28.137-14.86-39.732-26.205c-13.985-13.684-24.213-29.591-30.384-48.132  c-4.413-13.26-6.289-26.933-6.578-40.854c-0.484-23.349,3.421-46.166,8.387-68.853c0.188-0.859,0.333-1.727,0.553-2.877  c-0.897,0.048-1.495,0.021-2.071,0.119c-14.763,2.497-29.458,5.528-44.3,7.389c-21.644,2.713-43.206,1.793-64.241-4.662  c-17.118-5.253-32.267-14.018-45.285-26.346c-7.267-6.881-14.049-14.199-19.607-22.586c-6.522-9.842-11.44-20.434-14.778-31.733  c-8.062-27.28-6.395-54.818-1.842-82.382c1.314-7.96,2.962-15.87,4.631-23.766c2.5-11.833,5.171-23.629,7.718-35.453  c0.322-1.497,0.994-2.329,2.532-2.685c23.423-5.407,46.618-11.886,70.522-15.037c19.187-2.529,38.403-3.357,57.569-0.022  c26.063,4.536,48.243,16.407,66.646,35.497c14.099,14.627,23.976,31.568,29.431,51.125c6.25,22.407,6.074,45.138,2.988,67.905  c-1.641,12.119-4.236,24.11-6.406,36.158C521.701,496.209,521.51,497.08,521.197,498.63z M639.07,533.037  c-0.699,0.646-1.436,1.279-2.119,1.965c-40.746,40.77-81.471,81.559-122.279,122.266c-1.893,1.889-1.629,3.177-0.406,5.101  c8.689,13.685,19.951,24.617,34.193,32.46c1.664,0.917,2.643,0.794,3.979-0.546c40.451-40.544,80.938-81.053,121.453-121.535  c1.225-1.225,1.484-2.161,0.627-3.749c-7.969-14.747-19.258-26.277-33.547-34.942C640.434,533.729,639.863,533.459,639.07,533.037z   M486.835,380.6c-0.578-1.095-0.985-2.011-1.516-2.85c-8.503-13.464-19.582-24.222-33.48-32.085  c-2.189-1.238-3.465-1.123-5.314,0.733c-40.097,40.253-80.263,80.44-120.476,120.579c-1.58,1.577-1.791,2.725-0.728,4.633  c7.907,14.185,18.754,25.498,32.556,34.063c2.059,1.277,3.194,1.11,4.836-0.561c8.92-9.078,17.955-18.043,26.95-27.047  c31.805-31.833,63.611-63.666,95.412-95.504C485.699,381.938,486.255,381.25,486.835,380.6z M497.92,416.039  c-34.238,34.127-68.288,68.066-102.305,101.973c-0.033-0.014,0.192,0.148,0.432,0.174c12.903,1.376,25.839,1.188,38.581-0.979  c16.536-2.811,32.925-6.477,49.402-9.644c2.21-0.425,2.978-1.487,3.409-3.501c1.598-7.447,3.449-14.841,5.005-22.297  c3.87-18.552,6.866-37.215,6.179-56.269C498.504,422.201,498.14,418.915,497.92,416.039z M501.521,624.269  c34.363-34.247,68.402-68.171,102.482-102.136c-0.211-0.051-0.615-0.198-1.031-0.239c-12.357-1.221-24.756-1.158-36.957,0.907  c-16.898,2.86-33.656,6.553-50.496,9.775c-2.074,0.396-2.889,1.395-3.301,3.301c-1.359,6.289-2.879,12.541-4.246,18.828  c-3.813,17.547-6.928,35.198-7.012,53.229C500.936,613.415,501.326,618.898,501.521,624.269z M685.283,607.124  c-33.057,32.953-65.723,65.517-98.588,98.28c0.787,0.131,1.545,0.384,2.297,0.363c9.076-0.237,18.191-0.063,27.217-0.877  c18.492-1.665,36.543-5.93,54.578-10.194c2.221-0.525,3.355-1.5,3.596-3.691c0.078-0.717,0.303-1.418,0.469-2.124  c5.338-22.873,10.449-45.786,10.74-69.436C685.643,615.347,685.395,611.243,685.283,607.124z M412.71,334.733  c-0.63-0.112-1.324-0.353-2.013-0.338c-8.712,0.181-17.466-0.071-26.127,0.705c-19.117,1.712-37.781,6.093-56.416,10.53  c-1.523,0.363-2.315,1.042-2.655,2.607c-1.076,4.956-2.344,9.87-3.436,14.823c-4.374,19.837-8.146,39.759-8.035,60.194  c0.018,3.207,0.198,6.413,0.303,9.619C347.27,400.016,379.892,367.473,412.71,334.733z"
   id="path3827" />
</svg>